<svg width="18" height="18" viewBox="0 0 18 18" fill="none" xmlns="http://www.w3.org/2000/svg">
<path d="M8.9948 1.63673C6.52207 1.63673 4.33788 2.85218 3.00048 4.71448V3.47564C3.00048 3.09477 2.69081 2.78606 2.30883 2.78606C1.92686 2.78606 1.61719 3.09478 1.61719 3.47564V6.234C1.61719 6.61479 1.92686 6.92359 2.30883 6.92359H5.30596C5.68794 6.92359 5.99761 6.6148 5.99761 6.234C5.99761 5.85313 5.68794 5.54441 5.30596 5.54441H4.10288C5.18799 4.01533 6.97312 3.01593 8.99481 3.01593C12.3053 3.01593 14.989 5.69169 14.989 8.99238C14.989 12.293 12.3053 14.9688 8.99481 14.9688C6.20454 14.9688 3.86647 13.0653 3.19829 10.4916L3.18629 10.4953C3.0931 10.2244 2.84277 10.0267 2.53937 10.0267C2.1574 10.0267 1.84773 10.3354 1.84773 10.7162C1.84773 10.7842 1.86818 10.8457 1.8865 10.9077L1.8793 10.91C1.88385 10.9267 1.89217 10.9416 1.89681 10.9582C1.90189 10.9716 1.90527 10.985 1.91116 10.998C2.78876 14.0825 5.61996 16.348 8.99486 16.348C13.0694 16.348 16.3724 13.0547 16.3724 8.99236C16.3724 4.92992 13.0693 1.63673 8.9948 1.63673ZM8.9948 4.73983C8.61282 4.73983 8.30315 5.04856 8.30315 5.42942V9.56696C8.30315 9.94784 8.61282 10.2565 8.9948 10.2565H11.9919C12.3739 10.2565 12.6836 9.94782 12.6836 9.56704C12.6836 9.1861 12.3739 8.87745 11.9919 8.87745H9.68644V5.42942C9.68644 5.04855 9.37677 4.73983 8.9948 4.73983Z" fill="black"/>
</svg>
