<svg width="18" height="18" viewBox="0 0 18 18" fill="none" xmlns="http://www.w3.org/2000/svg">
<path d="M6.57227 3.01213C6.84243 2.77593 7.25292 2.80356 7.48926 3.07365C7.72527 3.34382 7.69776 3.75437 7.42773 3.99065L4.73047 6.351H11C13.5681 6.351 15.6503 8.43336 15.6504 11.0014C15.6504 13.5695 13.5681 15.6518 11 15.6518H10.875C10.516 15.6518 10.2246 15.3604 10.2246 15.0014C10.2247 14.6425 10.5161 14.351 10.875 14.351H11C12.8502 14.351 14.3496 12.8515 14.3496 11.0014C14.3495 9.15133 12.8501 7.65178 11 7.65178H4.73047L7.42773 10.0121C7.69766 10.2485 7.7254 10.659 7.48926 10.9291C7.25295 11.199 6.84237 11.2266 6.57227 10.9906L2.57227 7.49065C2.4313 7.3673 2.34971 7.18869 2.34961 7.00139C2.34961 6.81403 2.43131 6.63555 2.57227 6.51213L6.57227 3.01213Z" fill="black"/>
</svg>
