<svg width="14" height="14" viewBox="0 0 14 14" fill="none" xmlns="http://www.w3.org/2000/svg">
<path d="M6.42448 2.96001H9.15618C9.30777 2.96001 9.45789 2.98987 9.59794 3.04788C9.738 3.1059 9.86526 3.19093 9.97245 3.29812C10.0796 3.40532 10.1647 3.53258 10.2227 3.67263C10.2807 3.81269 10.3106 3.9628 10.3106 4.1144C10.3106 4.16952 10.3214 4.22411 10.3425 4.27504C10.3636 4.32597 10.3945 4.37225 10.4335 4.41123C10.4725 4.45021 10.5188 4.48113 10.5697 4.50222C10.6206 4.52332 10.6752 4.53418 10.7303 4.53418C10.7855 4.53418 10.8401 4.52332 10.891 4.50222C10.9419 4.48113 10.9882 4.45021 11.0272 4.41123C11.0661 4.37225 11.0971 4.32597 11.1182 4.27504C11.1393 4.22411 11.1501 4.16952 11.1501 4.1144C11.1501 3.58557 10.94 3.07841 10.5661 2.70447C10.1922 2.33053 9.685 2.12046 9.15618 2.12046H6.42448C6.36935 2.12045 6.31476 2.1313 6.26382 2.15239C6.21289 2.17349 6.1666 2.2044 6.12761 2.24338C6.08863 2.28237 6.0577 2.32864 6.0366 2.37958C6.0155 2.43051 6.00464 2.4851 6.00464 2.54024C6.00464 2.59537 6.0155 2.64996 6.0366 2.70089C6.0577 2.75183 6.08863 2.7981 6.12761 2.83709C6.1666 2.87607 6.21289 2.90699 6.26382 2.92808C6.31476 2.94917 6.36935 2.96002 6.42448 2.96001ZM7.22993 3.69462L6.30222 1.82871C6.25268 1.729 6.16556 1.65306 6.06002 1.61758C5.95448 1.58211 5.83917 1.59001 5.73946 1.63955C5.63975 1.6891 5.5638 1.77622 5.52833 1.88176C5.49285 1.9873 5.50076 2.1026 5.5503 2.20232L6.52156 4.15585C6.57809 4.26949 6.6652 4.3651 6.7731 4.43194C6.881 4.49877 7.00541 4.53418 7.13233 4.53417H10.6222C10.7738 4.53417 10.924 4.56403 11.064 4.62204C11.2041 4.68006 11.3313 4.76509 11.4385 4.87228C11.5457 4.97948 11.6307 5.10674 11.6888 5.24679C11.7468 5.38685 11.7766 5.53696 11.7766 5.68856V9.88632C11.7766 9.99765 11.8209 10.1044 11.8996 10.1831C11.9783 10.2619 12.0851 10.3061 12.1964 10.3061C12.3077 10.3061 12.4145 10.2619 12.4932 10.1831C12.572 10.1044 12.6162 9.99765 12.6162 9.88632V5.68856C12.6162 5.15973 12.4061 4.65257 12.0322 4.27863C11.6582 3.90469 11.1511 3.69462 10.6222 3.69462H7.22993ZM11.7766 7.26691V10.411C11.7766 10.5626 11.7468 10.7127 11.6888 10.8528C11.6307 10.9929 11.5457 11.1201 11.4385 11.2273C11.3313 11.3345 11.2041 11.4195 11.064 11.4775C10.924 11.5356 10.7738 11.5654 10.6222 11.5654H3.27616C2.97 11.5654 2.67638 11.4438 2.45989 11.2273C2.2434 11.0108 2.12178 10.7172 2.12178 10.411V3.58968C2.12178 3.28351 2.2434 2.98989 2.45989 2.7734C2.67638 2.55691 2.97 2.43529 3.27616 2.43529H5.926C6.03733 2.43529 6.1441 2.39106 6.22283 2.31234C6.30155 2.23362 6.34578 2.12685 6.34578 2.01552C6.34578 1.90418 6.30155 1.79741 6.22283 1.71869C6.1441 1.63997 6.03733 1.59574 5.926 1.59574H3.27616C2.74734 1.59574 2.24017 1.80581 1.86624 2.17975C1.4923 2.55368 1.28223 3.06085 1.28223 3.58968V10.411C1.28223 10.9399 1.4923 11.447 1.86624 11.821C2.24017 12.1949 2.74734 12.405 3.27616 12.405H10.6222C11.1511 12.405 11.6582 12.1949 12.0322 11.821C12.4061 11.447 12.6162 10.9399 12.6162 10.411V7.26691C12.6162 7.15558 12.572 7.04881 12.4932 6.97009C12.4145 6.89136 12.3077 6.84714 12.1964 6.84714C12.0851 6.84714 11.9783 6.89136 11.8996 6.97009C11.8209 7.04881 11.7766 7.15558 11.7766 7.26691Z" fill="white" fill-opacity="0.8"/>
</svg>
