<svg width="200" height="200" viewBox="0 0 200 200" fill="none" xmlns="http://www.w3.org/2000/svg">
<g clip-path="url(#clip0_210_8277)">
<path d="M13.5501 187.02L55.6201 178.4L58.7601 180.02C71.509 186.602 85.6525 190.025 100 190C117.8 190 135.201 184.722 150.001 174.832C164.802 164.943 176.337 150.887 183.149 134.442C189.961 117.996 191.743 99.9002 188.271 82.4419C184.798 64.9836 176.226 48.9471 163.64 36.3604C151.053 23.7737 135.017 15.202 117.558 11.7293C100.1 8.25665 82.004 10.039 65.5586 16.8508C49.1133 23.6627 35.0572 35.1983 25.1679 49.9987C15.2786 64.7991 10.0001 82.1997 10.0001 100C10.0001 115.65 14.0001 130.7 21.4901 144.03L23.4301 147.5L13.5501 187.02ZM15.5601 196.82C13.9038 197.158 12.1887 197.071 10.5753 196.566C8.96181 196.062 7.50259 195.156 6.33397 193.935C5.16536 192.713 4.3255 191.215 3.89288 189.581C3.46025 187.947 3.44899 186.23 3.86014 184.59L12.7601 148.93C4.36633 133.99 -0.0287943 117.136 0.000141962 100C0.000141962 44.77 44.7701 0 100 0C155.23 0 200 44.77 200 100C200 155.23 155.23 200 100 200C83.4801 200 67.9001 196 54.1701 188.9L15.5701 196.81L15.5601 196.82Z" fill="white" fill-opacity="0.8"/>
</g>
<defs>
<clipPath id="clip0_210_8277">
<rect width="200" height="200" fill="white"/>
</clipPath>
</defs>
</svg>
