<svg width="15" height="15" viewBox="0 0 15 15" fill="none" xmlns="http://www.w3.org/2000/svg">
<path d="M6.47973 6.14617C6.8246 5.93611 7.26263 5.95442 7.5891 6.19207L12.5891 9.83269C12.8945 10.0551 13.0488 10.4306 12.9875 10.8034C12.926 11.176 12.6595 11.4827 12.2991 11.5954H12.2981L12.2971 11.5964C12.2953 11.597 12.2917 11.5982 12.2883 11.5993C12.2809 11.6016 12.2693 11.6045 12.2551 11.6091C12.2255 11.6185 12.1816 11.6334 12.1272 11.6511C12.0311 11.6823 11.901 11.7248 11.7541 11.7751L12.343 12.6569L12.344 12.6579C12.7528 13.2736 12.4571 13.9515 12.0784 14.2614L12.0793 14.2624L11.5178 14.7214C11.1295 15.0409 10.2774 15.2192 9.79321 14.4919L9.16821 13.5544C9.1657 13.5571 9.1629 13.5604 9.16039 13.5632C9.03604 13.7001 8.92971 13.8201 8.85473 13.905C8.81741 13.9472 8.78678 13.9808 8.76684 14.0036C8.75704 14.0148 8.74931 14.0243 8.74438 14.03C8.74238 14.0323 8.74057 14.0346 8.7395 14.0358L8.63598 14.1393C8.38281 14.358 8.03291 14.4378 7.70532 14.3434C7.33115 14.2354 7.05278 13.9197 6.9934 13.5348L6.01196 7.15301C5.95059 6.75406 6.13516 6.35632 6.47973 6.14617ZM7.98168 13.3825C7.98168 13.3825 8.70823 12.545 9.30785 11.9606L10.6252 13.9372C10.6783 14.017 10.7951 14.023 10.8831 13.9509L11.4456 13.4889C11.5351 13.4165 11.5638 13.2916 11.511 13.2116L10.2278 11.2887C10.886 10.9905 11.9641 10.6526 12.0002 10.6413L7.00024 7.00066L7.98168 13.3825ZM4.38403 9.42644C4.67452 9.21501 5.08719 9.27713 5.31371 9.5739C5.53795 9.86866 5.48904 10.2861 5.19848 10.4997L3.3186 11.8747C3.03461 12.0818 2.61818 12.0053 2.39379 11.7087C2.16949 11.4118 2.22023 11.0097 2.50414 10.8024L4.38403 9.42644ZM1.75024 6.07683L4.10473 6.46648C4.46138 6.53062 4.71531 6.86351 4.67895 7.22234C4.62127 7.58762 4.29232 7.82729 3.93774 7.76531L1.58422 7.37859C1.20827 7.3274 0.95366 6.99361 1.00707 6.6198C1.04983 6.26741 1.37659 6.02796 1.75024 6.07683ZM12.3313 3.61394C12.6282 3.39636 13.0357 3.46497 13.26 3.75945C13.4864 4.05641 13.4438 4.46852 13.1448 4.68426L11.2776 6.04949C10.9806 6.2671 10.5644 6.19013 10.3401 5.89324C10.116 5.59638 10.1673 5.19704 10.4641 4.97918L12.3313 3.61394ZM3.61157 2.20672C3.91061 1.98894 4.31646 2.05488 4.53637 2.34539L5.99535 4.26531C6.21541 4.55587 6.16342 4.9556 5.86645 5.17351C5.58875 5.37838 5.1772 5.31648 4.95727 5.02605L3.49535 3.10613C3.27539 2.81559 3.33378 2.40961 3.61157 2.20672ZM8.68481 1.00847C9.05214 1.07265 9.30603 1.40768 9.25903 1.76433L8.96606 4.0866C8.91891 4.44312 8.5859 4.6862 8.22289 4.62859C7.85777 4.56427 7.60404 4.22924 7.64672 3.87469L7.94164 1.55047C7.98879 1.19388 8.32181 0.950774 8.68481 1.00847Z" fill="black"/>
</svg>
