<svg width="18" height="18" viewBox="0 0 18 18" fill="none" xmlns="http://www.w3.org/2000/svg">
<path d="M12.1872 10.9064H13.4383V5.81281C13.4383 5.47516 13.3142 5.18234 13.0659 4.93406C12.8177 4.68578 12.5248 4.56172 12.1872 4.56172H7.09359V5.81281H12.1872V10.9064ZM5.81281 12.1872V2.62555C5.81281 2.28007 5.53275 2 5.18727 2C4.84179 2 4.56172 2.28007 4.56172 2.62555V4.56172H2.62555C2.28007 4.56172 2 4.84179 2 5.18727C2 5.53275 2.28007 5.81281 2.62555 5.81281H4.56172V12.1873C4.56172 12.5248 4.68578 12.8178 4.93406 13.0661C5.18234 13.3144 5.47516 13.4384 5.81281 13.4384H12.1873V15.3745C12.1873 15.7199 12.4674 16 12.8129 16C13.1584 16 13.4384 15.7199 13.4384 15.3745V13.4383H15.3745C15.7199 13.4383 16 13.1582 16 12.8127C16 12.4673 15.7199 12.1872 15.3745 12.1872H5.81281Z" fill="black"/>
</svg>
