<svg width="18" height="18" viewBox="0 0 18 18" fill="none" xmlns="http://www.w3.org/2000/svg">
<path d="M11.4277 3.01213C11.1576 2.77593 10.7471 2.80356 10.5107 3.07365C10.2747 3.34382 10.3022 3.75437 10.5723 3.99065L13.2695 6.351H7C4.43195 6.351 2.34972 8.43336 2.34961 11.0014C2.34961 13.5695 4.43188 15.6518 7 15.6518H7.125C7.48398 15.6518 7.77539 15.3604 7.77539 15.0014C7.77528 14.6425 7.48392 14.351 7.125 14.351H7C5.14985 14.351 3.65039 12.8515 3.65039 11.0014C3.6505 9.15133 5.14992 7.65178 7 7.65178H13.2695L10.5723 10.0121C10.3023 10.2485 10.2746 10.659 10.5107 10.9291C10.7471 11.199 11.1576 11.2266 11.4277 10.9906L15.4277 7.49065C15.5687 7.3673 15.6503 7.18869 15.6504 7.00139C15.6504 6.81403 15.5687 6.63555 15.4277 6.51213L11.4277 3.01213Z" fill="black"/>
</svg>
