<svg xmlns="http://www.w3.org/2000/svg" width="520" height="324" viewBox="0 0 520 324">
  <defs>
    <pattern id="dots" width="18" height="18" patternUnits="userSpaceOnUse">
      <circle cx="5" cy="5" r="3" fill="#111"/>
    </pattern>
  </defs>
  <rect width="520" height="324" fill="#ffed00"/>
  <rect width="520" height="324" fill="url(#dots)" opacity=".18"/>
  <path d="M0 246 C112 188 182 246 286 190 C392 134 440 158 520 96 L520 324 L0 324Z" fill="#ff3aa7"/>
  <path d="M0 0 L180 0 L104 104 L0 132Z" fill="#00c2ff"/>
  <rect x="70" y="58" width="380" height="210" rx="0" fill="#fff" stroke="#111" stroke-width="8"/>
  <rect x="94" y="86" width="170" height="40" fill="#111"/>
  <rect x="94" y="146" width="250" height="18" fill="#ff3aa7" stroke="#111" stroke-width="5"/>
  <rect x="94" y="184" width="190" height="18" fill="#00c2ff" stroke="#111" stroke-width="5"/>
  <circle cx="388" cy="166" r="58" fill="#ffed00" stroke="#111" stroke-width="8"/>
  <path d="M354 166h68M388 132v68" stroke="#111" stroke-width="8" stroke-linecap="round"/>
</svg>
