<svg width="14" height="14" viewBox="0 0 14 14" fill="none" xmlns="http://www.w3.org/2000/svg">
<path d="M4.08394 3.49947C4.08394 3.63772 4.10728 3.76897 4.15103 3.8903C4.18323 3.98099 4.1925 4.07824 4.17801 4.17338C4.16352 4.26852 4.12571 4.35859 4.06796 4.43558C4.0102 4.51256 3.9343 4.57406 3.84702 4.61459C3.75973 4.65513 3.66377 4.67343 3.56769 4.66788C3.33709 4.65445 3.10768 4.70977 2.90854 4.82685C2.70941 4.94392 2.54951 5.11748 2.44912 5.32552C2.34872 5.53356 2.31234 5.76672 2.34459 5.99546C2.37684 6.2242 2.47627 6.43821 2.63028 6.61038C2.72612 6.71729 2.77918 6.85578 2.77929 6.99936C2.77939 7.14293 2.72655 7.28151 2.63086 7.38855C2.50184 7.53296 2.41078 7.7072 2.36588 7.89557C2.32097 8.08393 2.32364 8.28052 2.37364 8.4676C2.42363 8.65468 2.51939 8.82638 2.65228 8.96724C2.78516 9.10809 2.951 9.21367 3.13486 9.27447C3.2692 9.3187 3.38289 9.41022 3.45479 9.53201C3.52668 9.6538 3.55188 9.79757 3.52569 9.93655C3.49413 10.1255 3.50009 10.3187 3.54322 10.5053C3.58635 10.6919 3.66582 10.8682 3.77708 11.0241C4.00178 11.339 4.34235 11.5516 4.72386 11.6154C5.10538 11.6791 5.49658 11.5887 5.81143 11.364C6.12627 11.1393 6.33895 10.7987 6.40269 10.4172C6.40619 10.3921 6.41086 10.3688 6.41728 10.3455V3.49947C6.41728 3.19005 6.29436 2.8933 6.07557 2.67451C5.85678 2.45572 5.56003 2.3328 5.25061 2.3328C4.94119 2.3328 4.64445 2.45572 4.42565 2.67451C4.20686 2.8933 4.08394 3.19005 4.08394 3.49947ZM7.58394 10.3455C7.58978 10.3688 7.59561 10.3921 7.59853 10.4166C7.63005 10.6055 7.69847 10.7864 7.79989 10.9489C7.9013 11.1113 8.03372 11.2522 8.18959 11.3635C8.34546 11.4748 8.52172 11.5543 8.70831 11.5975C8.8949 11.6406 9.08816 11.6466 9.27707 11.6151C9.46598 11.5836 9.64682 11.5151 9.80929 11.4137C9.97175 11.3123 10.1126 11.1799 10.2239 11.024C10.3352 10.8682 10.4147 10.6919 10.4579 10.5053C10.5011 10.3187 10.5071 10.1255 10.4755 9.93655C10.4493 9.79757 10.4745 9.6538 10.5464 9.53201C10.6183 9.41022 10.732 9.3187 10.8664 9.27447C11.0502 9.21367 11.2161 9.10809 11.3489 8.96724C11.4818 8.82638 11.5776 8.65468 11.6276 8.4676C11.6776 8.28052 11.6802 8.08393 11.6353 7.89557C11.5904 7.7072 11.4994 7.53296 11.3704 7.38855C11.2746 7.28158 11.2216 7.14304 11.2216 6.99947C11.2216 6.85589 11.2746 6.71736 11.3704 6.61038C11.5244 6.43821 11.6238 6.2242 11.656 5.99546C11.6883 5.76672 11.6519 5.53356 11.5515 5.32552C11.4511 5.11748 11.2912 4.94392 11.0921 4.82685C10.893 4.70977 10.6636 4.65445 10.4329 4.66788C10.3369 4.67333 10.241 4.65495 10.1538 4.61437C10.0666 4.5738 9.99079 4.51229 9.93311 4.43532C9.87543 4.35835 9.83767 4.26831 9.82321 4.17322C9.80874 4.07813 9.81801 3.98094 9.85019 3.8903C9.90698 3.73016 9.9281 3.55954 9.91208 3.39039C9.89606 3.22123 9.84328 3.05762 9.75744 2.91098C9.6716 2.76435 9.55476 2.63823 9.4151 2.54146C9.27544 2.44468 9.11633 2.37958 8.94888 2.3507C8.78144 2.32182 8.60971 2.32987 8.44571 2.37428C8.2817 2.41868 8.12937 2.49838 7.99937 2.60779C7.86937 2.7172 7.76484 2.85368 7.69308 3.0077C7.62133 3.16172 7.58408 3.32955 7.58394 3.49947V10.3455ZM5.25061 1.16613C5.5817 1.16574 5.90907 1.23599 6.21085 1.3722C6.51263 1.5084 6.78187 1.70742 7.00061 1.95597C7.31822 1.59584 7.73921 1.34247 8.20613 1.23043C8.67305 1.11838 9.16317 1.15312 9.60962 1.3299C10.0561 1.50668 10.4371 1.8169 10.7008 2.21822C10.9644 2.61955 11.0978 3.09244 11.0828 3.57239C11.4312 3.66226 11.7542 3.83148 12.0264 4.06683C12.2987 4.30217 12.5128 4.59727 12.6522 4.92906C12.7915 5.26086 12.8522 5.62038 12.8296 5.97953C12.807 6.33869 12.7017 6.68776 12.5219 6.99947C12.6754 7.26483 12.775 7.55785 12.8151 7.86178C12.8553 8.1657 12.8351 8.47455 12.7557 8.77065C12.6763 9.06676 12.5393 9.3443 12.3526 9.5874C12.1658 9.8305 11.9329 10.0344 11.6673 10.1874V10.2078C11.6672 10.7506 11.4989 11.2801 11.1855 11.7232C10.872 12.1664 10.4289 12.5016 9.91716 12.6825C9.40538 12.8634 8.8501 12.8812 8.32778 12.7334C7.80546 12.5857 7.34179 12.2797 7.00061 11.8575C6.65943 12.2797 6.19576 12.5857 5.67344 12.7334C5.15112 12.8812 4.59584 12.8634 4.08406 12.6825C3.57228 12.5016 3.12917 12.1664 2.81575 11.7232C2.50232 11.2801 2.334 10.7506 2.33394 10.2078V10.1874C2.06829 10.0344 1.83542 9.8305 1.64866 9.5874C1.4619 9.3443 1.32491 9.06676 1.24553 8.77065C1.16615 8.47455 1.14595 8.1657 1.18607 7.86178C1.2262 7.55785 1.32586 7.26483 1.47936 6.99947C1.29965 6.68778 1.19441 6.33876 1.17187 5.97968C1.14933 5.6206 1.21009 5.26116 1.34941 4.92944C1.48873 4.59772 1.70283 4.30269 1.97501 4.06739C2.24719 3.83208 2.57007 3.66287 2.91844 3.57297C2.9086 3.26052 2.96163 2.94928 3.0744 2.65772C3.18718 2.36617 3.35738 2.10025 3.57492 1.87575C3.79245 1.65125 4.05288 1.47275 4.34073 1.35085C4.62859 1.22895 4.93801 1.16614 5.25061 1.16613Z" fill="white" fill-opacity="0.8"/>
</svg>
